HIERARCHY
ROOT Hips
{
    OFFSET   0.000000   0.000000   0.000000
    CHANNELS 6 Xposition Yposition Zposition Zrotation Xrotation Yrotation
    JOINT Chest
    {
        OFFSET   0.000000   8.007240   0.000000
        CHANNELS 3 Zrotation Xrotation Yrotation
        JOINT Chest2
        {
            OFFSET   0.000000  22.077100   0.000000
            CHANNELS 3 Zrotation Xrotation Yrotation
            JOINT Neck
            {
                OFFSET   0.000000  23.254800   0.000000
                CHANNELS 3 Zrotation Xrotation Yrotation
                JOINT Head
                {
                    OFFSET   0.000000  14.370000   1.956600
                    CHANNELS 3 Zrotation Xrotation Yrotation
                    End Site
                    {
                        OFFSET   0.000000  19.566000   0.000000
                    }
                }
            }
            JOINT LeftCollar
            {
                OFFSET   3.911900  19.017000  -0.467064
                CHANNELS 3 Zrotation Xrotation Yrotation
                JOINT LeftShoulder
                {
                    OFFSET  10.383700   0.000000   0.000000
                    CHANNELS 3 Zrotation Xrotation Yrotation
                    JOINT LeftElbow
                    {
                        OFFSET  26.662100   0.001476   0.000517
                        CHANNELS 3 Zrotation Xrotation Yrotation
                        JOINT LeftWrist
                        {
                            OFFSET  28.869000  -0.000025  -0.000106
                            CHANNELS 3 Zrotation Xrotation Yrotation
                            JOINT LeftFinger0
                            {
                                OFFSET   2.044660  -2.323460   3.252850
                                CHANNELS 3 Zrotation Xrotation Yrotation
                                JOINT LeftFinger01
                                {
                                    OFFSET   3.088130   0.000000   0.000000
                                    CHANNELS 3 Zrotation Xrotation Yrotation
                                    JOINT LeftFinger02
                                    {
                                        OFFSET   2.639460   0.000000   0.000000
                                        CHANNELS 3 Zrotation Xrotation Yrotation
                                        End Site
                                        {
                                            OFFSET   2.582190   0.000000   0.000000
                                        }
                                    }
                                }
                            }
                            JOINT LeftFinger1
                            {
                                OFFSET   8.364480   0.000000   3.252850
                                CHANNELS 3 Zrotation Xrotation Yrotation
                                JOINT LeftFinger11
                                {
                                    OFFSET   4.646930   0.000000   0.000000
                                    CHANNELS 3 Zrotation Xrotation Yrotation
                                    JOINT LeftFinger12
                                    {
                                        OFFSET   2.323460   0.000000   0.000000
                                        CHANNELS 3 Zrotation Xrotation Yrotation
                                        End Site
                                        {
                                            OFFSET   2.273050   0.000000   0.000000
                                        }
                                    }
                                }
                            }
                            JOINT LeftFinger2
                            {
                                OFFSET   8.364490   0.000015   1.078090
                                CHANNELS 3 Zrotation Xrotation Yrotation
                                JOINT LeftFinger21
                                {
                                    OFFSET   5.111620   0.000000   0.000000
                                    CHANNELS 3 Zrotation Xrotation Yrotation
                                    JOINT LeftFinger22
                                    {
                                        OFFSET   2.788160   0.000016   0.000000
                                        CHANNELS 3 Zrotation Xrotation Yrotation
                                        End Site
                                        {
                                            OFFSET   2.727660   0.000000   0.000000
                                        }
                                    }
                                }
                            }
                            JOINT LeftFinger3
                            {
                                OFFSET   7.899780   0.000017  -1.078090
                                CHANNELS 3 Zrotation Xrotation Yrotation
                                JOINT LeftFinger31
                                {
                                    OFFSET   4.646930   0.000000   0.000000
                                    CHANNELS 3 Zrotation Xrotation Yrotation
                                    JOINT LeftFinger32
                                    {
                                        OFFSET   2.323470   0.000000   0.000000
                                        CHANNELS 3 Zrotation Xrotation Yrotation
                                        End Site
                                        {
                                            OFFSET   2.273050   0.000000   0.000000
                                        }
                                    }
                                }
                            }
                            JOINT LeftFinger4
                            {
                                OFFSET   7.435090   0.000000  -3.252850
                                CHANNELS 3 Zrotation Xrotation Yrotation
                                JOINT LeftFinger41
                                {
                                    OFFSET   3.717550   0.000000   0.000000
                                    CHANNELS 3 Zrotation Xrotation Yrotation
                                    JOINT LeftFinger42
                                    {
                                        OFFSET   1.858770   0.000000   0.000000
                                        CHANNELS 3 Zrotation Xrotation Yrotation
                                        End Site
                                        {
                                            OFFSET   1.818440   0.000000   0.000000
                                        }
                                    }
                                }
                            }
                        }
                    }
                }
            }
            JOINT RightCollar
            {
                OFFSET  -3.911900  19.017000  -0.467063
                CHANNELS 3 Zrotation Xrotation Yrotation
                JOINT RightShoulder
                {
                    OFFSET -10.383700   0.000019   0.000000
                    CHANNELS 3 Zrotation Xrotation Yrotation
                    JOINT RightElbow
                    {
                        OFFSET -26.662100   0.001175   0.000102
                        CHANNELS 3 Zrotation Xrotation Yrotation
                        JOINT RightWrist
                        {
                            OFFSET -28.869000   0.000016  -0.000079
                            CHANNELS 3 Zrotation Xrotation Yrotation
                            JOINT RightFinger0
                            {
                                OFFSET  -2.044660  -2.323490   3.252850
                                CHANNELS 3 Zrotation Xrotation Yrotation
                                JOINT RightFinger01
                                {
                                    OFFSET  -3.088140   0.000000   0.000000
                                    CHANNELS 3 Zrotation Xrotation Yrotation
                                    JOINT RightFinger02
                                    {
                                        OFFSET  -2.639460   0.000000   0.000000
                                        CHANNELS 3 Zrotation Xrotation Yrotation
                                        End Site
                                        {
                                            OFFSET  -2.582190   0.000000   0.000000
                                        }
                                    }
                                }
                            }
                            JOINT RightFinger1
                            {
                                OFFSET  -8.364480   0.000000   3.252850
                                CHANNELS 3 Zrotation Xrotation Yrotation
                                JOINT RightFinger11
                                {
                                    OFFSET  -4.646930   0.000000   0.000000
                                    CHANNELS 3 Zrotation Xrotation Yrotation
                                    JOINT RightFinger12
                                    {
                                        OFFSET  -2.323470   0.000000   0.000000
                                        CHANNELS 3 Zrotation Xrotation Yrotation
                                        End Site
                                        {
                                            OFFSET  -2.273050   0.000000   0.000000
                                        }
                                    }
                                }
                            }
                            JOINT RightFinger2
                            {
                                OFFSET  -8.364480   0.000000   1.078090
                                CHANNELS 3 Zrotation Xrotation Yrotation
                                JOINT RightFinger21
                                {
                                    OFFSET  -5.111620   0.000000   0.000000
                                    CHANNELS 3 Zrotation Xrotation Yrotation
                                    JOINT RightFinger22
                                    {
                                        OFFSET  -2.788160   0.000000   0.000000
                                        CHANNELS 3 Zrotation Xrotation Yrotation
                                        End Site
                                        {
                                            OFFSET  -2.727660   0.000000   0.000000
                                        }
                                    }
                                }
                            }
                            JOINT RightFinger3
                            {
                                OFFSET  -7.899780   0.000000  -1.078090
                                CHANNELS 3 Zrotation Xrotation Yrotation
                                JOINT RightFinger31
                                {
                                    OFFSET  -4.646930   0.000000   0.000000
                                    CHANNELS 3 Zrotation Xrotation Yrotation
                                    JOINT RightFinger32
                                    {
                                        OFFSET  -2.323470   0.000000   0.000000
                                        CHANNELS 3 Zrotation Xrotation Yrotation
                                        End Site
                                        {
                                            OFFSET  -2.273050   0.000000   0.000000
                                        }
                                    }
                                }
                            }
                            JOINT RightFinger4
                            {
                                OFFSET  -7.435090   0.000000  -3.252850
                                CHANNELS 3 Zrotation Xrotation Yrotation
                                JOINT RightFinger41
                                {
                                    OFFSET  -3.717550   0.000000   0.000000
                                    CHANNELS 3 Zrotation Xrotation Yrotation
                                    JOINT RightFinger42
                                    {
                                        OFFSET  -1.858770   0.000000   0.000000
                                        CHANNELS 3 Zrotation Xrotation Yrotation
                                        End Site
                                        {
                                            OFFSET  -1.818440   0.000000   0.000000
                                        }
                                    }
                                }
                            }
                        }
                    }
                }
            }
        }
    }
    JOINT LeftHip
    {
        OFFSET   9.783040   0.000000   0.000000
        CHANNELS 3 Zrotation Xrotation Yrotation
        JOINT LeftKnee
        {
            OFFSET   0.000032 -41.789100  -0.002222
            CHANNELS 3 Zrotation Xrotation Yrotation
            JOINT LeftAnkle
            {
                OFFSET   0.000087 -41.133200  -0.000135
                CHANNELS 3 Zrotation Xrotation Yrotation
                JOINT LeftToe
                {
                    OFFSET   0.000000  -6.358960  14.674500
                    CHANNELS 3 Zrotation Xrotation Yrotation
                    End Site
                    {
                        OFFSET   0.000000   0.000000   3.913200
                    }
                }
            }
        }
    }
    JOINT RightHip
    {
        OFFSET  -9.783040   0.000000   0.000000
        CHANNELS 3 Zrotation Xrotation Yrotation
        JOINT RightKnee
        {
            OFFSET   0.000047 -41.789100  -0.000896
            CHANNELS 3 Zrotation Xrotation Yrotation
            JOINT RightAnkle
            {
                OFFSET  -0.000117 -41.133300  -0.000248
                CHANNELS 3 Zrotation Xrotation Yrotation
                JOINT RightToe
                {
                    OFFSET   0.000000  -6.358970  14.674500
                    CHANNELS 3 Zrotation Xrotation Yrotation
                    End Site
                    {
                        OFFSET   0.000000   0.000000   3.913200
                    }
                }
            }
        }
    }
}
MOTION
Frames: 5
Frame Time:   0.016667
  0.436490  89.527700   1.992990  -0.971263  -2.152470   1.189760  -1.569810   1.485730   0.296950  -3.148880   2.962740   0.634842   4.240910  -0.153856   0.011467   6.967400  -0.306834  -1.551580  -0.557089   4.824510  -4.958750 -69.701300  13.435400  -6.166730  -1.624830  -4.362080  -7.680520   3.113630  -7.530170   1.661100  43.267800  30.390100 -66.175500 -20.934400  -0.001473  -0.000485  -5.467180  -0.001462  -0.004824 -30.084800   3.225150  -5.546550 -24.742800   0.001117  -0.000222 -17.319900   0.000000   0.004714 -27.388200  -0.154140   0.297680 -28.672900   0.001082  -0.002451 -19.096100   0.001019   0.007126 -27.176000  -2.025830   3.939530 -28.012600   0.001931  -0.000721 -18.656400   0.000147   0.000676 -29.111600  -3.033500   5.428710 -43.883200  -0.005709   0.000422 -29.226300  -0.003239  -0.002794  -0.041990  -7.379710  -1.993920  -0.426234 -42.370100  71.125700 -11.810800  11.297400   5.009480 -15.510200  21.213200   2.889630 -48.058600  30.136000  61.523900  14.703700   0.003634  -0.000774   2.351820  -0.008815   0.002708  10.107500   1.161980   7.353080   8.250960  -0.155963  -0.031535   5.775690  -0.111294  -0.007006   8.975170   1.075450   7.529020   8.956110  -0.163478  -0.037604   5.964790  -0.111480  -0.009442   9.319250   0.832413   5.019170   9.344540  -0.016075  -0.008560   6.223470  -0.017447  -0.006075   7.762290   0.427966   3.103130  11.644000  -0.026631  -0.013606   7.754890  -0.018858  -0.006373   1.557360   5.506100   1.950660   0.763381   0.140274   7.738080  -3.627800  -3.556290   2.629520   0.000000   0.000000  -0.000000   0.462439   1.734060  -4.078770   1.565500   3.173010  -8.021800  -3.711150  -2.912350  -4.338920   0.000000   0.000000   0.000000
  0.452154  89.526600   1.996780  -0.976395  -2.185320   1.038330  -1.579110   1.427470   0.126055  -3.162780   2.850890   0.291568   4.207830  -0.009431   0.000836   6.915410  -0.018866  -1.217180  -0.560380   4.902160  -4.680170 -69.885800  13.440300  -5.964990  -1.641460  -4.362690  -7.696080   3.063340  -7.500520   1.628960  43.239200  30.331100 -66.144000 -20.913200  -0.001445  -0.000465  -5.456590  -0.001487  -0.004800 -30.085500   3.236590  -5.566200 -24.746500   0.001056  -0.000226 -17.321700   0.000000   0.004762 -27.389600  -0.145916   0.281834 -28.678800   0.001036  -0.002375 -19.100000   0.000988   0.007155 -27.177400  -2.024520   3.936960 -28.014200   0.001901  -0.000738 -18.657500   0.000186   0.000628 -29.121300  -3.030600   5.421850 -43.897300  -0.005640   0.000441 -29.235700  -0.003175  -0.002810   0.408199  -6.849180  -1.811320   0.885408 -40.971800  71.632200 -12.651000  11.007800   6.772650 -14.339500  19.885600   3.269520 -48.296300  30.251400  61.752400  14.438400  -0.001898  -0.007249   2.219200  -0.008832  -0.001988  12.088000   1.933460   8.815880   9.918470  -0.128037  -0.018705   6.942910  -0.090607  -0.001450  10.783100   1.764240   9.026480  10.825500  -0.130293  -0.022724   7.209760  -0.088089  -0.003530  10.000700   0.995070   5.733080  10.042500  -0.023285  -0.016497   6.688340  -0.019927  -0.010270   8.517400   0.555331   3.817260  12.790700  -0.037500  -0.025002   8.518570  -0.027379  -0.012388   1.544620   5.566470   1.987280   0.750673   0.126877   7.785310  -3.602020  -3.573670   2.691870  -0.000000   0.000000  -0.000000   0.457658   1.734380  -4.030600   1.546540   3.225380  -7.993390  -3.701280  -2.912620  -4.269940  -0.000000   0.000000   0.000000
  0.462275  89.525600   1.998710  -0.983496  -2.231610   0.841201  -1.585180   1.372900  -0.028475  -3.171040   2.746060  -0.018942   4.152560   0.130007  -0.009366   6.822080   0.259220  -0.861570  -0.570316   4.961400  -4.441150 -70.095400  13.445100  -5.756240  -1.650080  -4.368030  -7.703330   3.023850  -7.487970   1.591140  43.230200  30.283900 -66.135000 -20.870400  -0.001415  -0.000455  -5.435170  -0.001513  -0.004778 -30.083300   3.256650  -5.600600 -24.747700   0.000996  -0.000230 -17.322200   0.000000   0.004809 -27.390700  -0.130942   0.252940 -28.683000   0.000990  -0.002300 -19.102900   0.000958   0.007183 -27.178300  -2.021510   3.930920 -28.017900   0.001872  -0.000756 -18.659900   0.000226   0.000583 -29.136000  -3.025430   5.409020 -43.918600  -0.005571   0.000458 -29.249800  -0.003112  -0.002825   0.830716  -6.389100  -1.611370   2.694920 -39.303000  72.237800 -13.634500  10.534300   8.911890 -12.999600  18.385700   3.913340 -48.502500  30.529800  62.166900  14.242700  -0.007430  -0.013724   2.121330  -0.008847  -0.006684  14.765400   3.022840  10.981300  12.242200  -0.082468  -0.005449   8.569490  -0.057348   0.004107  13.213900   2.707820  11.126000  13.409100  -0.080598  -0.007843   8.930420  -0.053481   0.002382  10.574600   1.124670   6.114460  10.630300  -0.029028  -0.023408   7.079780  -0.021259  -0.012830   9.164070   0.663721   4.233290  13.775200  -0.045677  -0.033643   9.174280  -0.033890  -0.016686   1.537120   5.651120   2.023330   0.741918   0.102280   7.864540  -3.573150  -3.591790   2.775830  -0.000000   0.000000  -0.000000   0.456167   1.736010  -3.993530   1.525600   3.259990  -7.925140  -3.689170  -2.913010  -4.175380   0.000000   0.000000   0.000000
  0.464171  89.524600   1.998590  -1.011190  -2.295200   0.596960  -1.597300   1.332170  -0.152010  -3.192370   2.667080  -0.266874   4.109260   0.247022  -0.017798   6.751490   0.492959  -0.511331  -0.581105   4.994290  -4.299390 -70.294400  13.375100  -5.541120  -1.661490  -4.401970  -7.723180   2.995080  -7.486320   1.536080  43.242600  30.262000 -66.170600 -20.816300  -0.001379  -0.000462  -5.408120  -0.001528  -0.004757 -30.083900   3.279730  -5.637560 -24.747800   0.000939  -0.000236 -17.323000   0.000000   0.004852 -27.391800  -0.112940   0.220121 -28.687700   0.000946  -0.002226 -19.106100   0.000930   0.007212 -27.179500  -2.016010   3.919620 -28.031800   0.001844  -0.000775 -18.669200   0.000267   0.000543 -29.163300  -3.019590   5.392000 -43.958400  -0.005499   0.000473 -29.276400  -0.003047  -0.002839   1.276790  -5.983350  -1.392870   4.961600 -37.462300  72.854100 -14.619100   9.909500  11.418100 -11.717200  17.075400   4.480710 -48.437200  30.790600  62.868100  14.457700  -0.007117  -0.012549   2.228810  -0.008853  -0.006463  15.778000   3.560970  12.313600  13.199700  -0.039823  -0.004953   9.239760  -0.027748   0.003411  14.093100   3.076030  12.023600  14.396800  -0.047740  -0.008184   9.588220  -0.031998   0.001719  11.183400   1.199300   6.098430  11.244100  -0.029385  -0.024583   7.488590  -0.019983  -0.012263   9.815800   0.725284   4.251610  14.759300  -0.045929  -0.034510   9.829660  -0.034292  -0.015505   1.535520   5.773140   2.059870   0.743340   0.048431   7.961350  -3.543980  -3.602980   2.886140  -0.000000   0.000000   0.000000   0.467344   1.834230  -3.974290   1.511210   3.237760  -7.822930  -3.674200  -2.915180  -4.052310   0.000000   0.000000  -0.000000
  0.466066  89.523700   1.997740  -1.051210  -2.368450   0.322348  -1.610820   1.307250  -0.253184  -3.217130   2.621090  -0.469682   4.062990   0.339843  -0.024168   6.675840   0.678564  -0.165525  -0.596312   5.016680  -4.180670 -70.472800  13.270400  -5.359510  -1.676310  -4.448460  -7.751110   2.973140  -7.484690   1.474210  43.259400  30.257000 -66.203200 -20.761200  -0.001341  -0.000470  -5.380570  -0.001538  -0.004734 -30.084200   3.294150  -5.664590 -24.747800   0.000884  -0.000244 -17.323400   0.000000   0.004893 -27.392300  -0.100145   0.193300 -28.690300   0.000903  -0.002154 -19.107800   0.000903   0.007241 -27.180200  -2.012220   3.911790 -28.042100   0.001817  -0.000794 -18.676100   0.000308   0.000505 -29.181900  -3.015340   5.380940 -43.985500  -0.005427   0.000485 -29.294400  -0.002983  -0.002852   1.706910  -5.632910  -1.155400   7.420670 -35.399500  73.270400 -15.611200   9.138580  14.143000 -10.507200  15.994600   4.976770 -48.117900  30.923900  63.617200  14.907900  -0.004926  -0.010074   2.453930  -0.008853  -0.004917  16.057600   3.774320  12.946000  13.500900  -0.014821  -0.004882   9.450660  -0.010720  -0.001462  14.317700   3.183560  12.321100  14.670200  -0.031392  -0.010568   9.770320  -0.021734  -0.002922  12.071300   1.276480   6.037760  12.139000  -0.029742  -0.025759   8.084560  -0.018706  -0.011695  10.734400   0.786585   4.254280  16.144300  -0.046181  -0.035376  10.752100  -0.034693  -0.014324   1.533530   5.908960   2.093750   0.747814   0.004357   8.077410  -3.514800  -3.622390   3.010160   0.000000   0.000000   0.000000   0.478688   1.933510  -3.959770   1.496820   3.215630  -7.704520  -3.656490  -2.917360  -3.910260   0.000000   0.000000   0.000000
